<?xml version="1.0" standalone="no"?>
<!DOCTYPE svg PUBLIC "-//W3C//DTD SVG 20010904//EN"
 "http://www.w3.org/TR/2001/REC-SVG-20010904/DTD/svg10.dtd">
<svg version="1.0" xmlns="http://www.w3.org/2000/svg"
 width="600.000000pt" height="600.000000pt" viewBox="0 0 600.000000 600.000000"
 preserveAspectRatio="xMidYMid meet">
<metadata>
Created by potrace 1.11, written by Peter Selinger 2001-2013
</metadata>
<g transform="translate(0.000000,600.000000) scale(0.100000,-0.100000)"
fill="#000000" stroke="none">
<path d="M2779 5477 c-56 -30 -100 -99 -107 -166 -6 -64 23 -128 77 -171 l41
-33 0 -485 0 -485 43 7 c23 4 61 10 85 13 l42 6 0 472 0 472 39 31 c92 74 104
202 28 289 -64 73 -166 93 -248 50z"/>
<path d="M3610 5308 c-97 -27 -162 -135 -141 -230 l8 -36 -178 -178 -179 -179
0 -266 0 -266 48 -6 c26 -4 64 -9 85 -13 l37 -7 0 249 0 249 145 145 145 145
73 0 c98 0 158 34 193 108 55 120 2 246 -120 282 -56 17 -67 17 -116 3z"/>
<path d="M2042 5039 c-18 -6 -50 -27 -72 -49 -87 -87 -77 -225 23 -304 36 -28
46 -31 119 -32 l80 -1 129 -129 129 -129 0 -192 0 -192 83 40 82 39 3 189 2
189 -153 146 -154 146 1 73 c1 62 -3 79 -26 119 -47 79 -148 115 -246 87z"/>
<path d="M3940 4951 c-54 -17 -91 -43 -118 -83 -23 -36 -27 -52 -28 -121 l-1
-79 -167 -167 -166 -166 0 -130 0 -130 80 -42 80 -42 0 137 0 137 146 147 147
146 52 -5 c91 -10 166 30 206 110 46 89 6 222 -79 266 -44 23 -117 33 -152 22z"/>
<path d="M2888 4010 c-154 -25 -276 -71 -404 -155 -383 -250 -542 -748 -373
-1173 205 -515 791 -759 1300 -542 158 67 317 199 419 346 106 153 160 315
167 504 6 150 -6 241 -51 373 -50 146 -113 244 -236 367 -140 140 -265 211
-458 261 -89 23 -277 33 -364 19z m257 -420 c111 -54 174 -156 183 -296 l5
-84 58 0 59 0 0 -320 0 -320 -430 0 -430 0 0 320 0 320 49 0 49 0 4 88 c3 71
10 100 32 145 33 68 99 129 170 157 70 28 182 23 251 -10z"/>
<path d="M2945 3476 c-78 -29 -125 -114 -125 -226 l0 -40 186 0 186 0 -3 78
c-3 65 -9 86 -31 119 -44 66 -137 96 -213 69z"/>
<path d="M3608 2084 c-4 -5 -39 -26 -77 -44 l-71 -35 0 -305 0 -305 138 -138
139 -138 -5 -54 c-8 -94 34 -171 113 -206 102 -47 237 5 275 106 19 51 14 130
-12 177 -40 74 -135 119 -209 100 l-37 -9 -121 121 -121 121 -2 310 c-2 171
-6 305 -10 299z"/>
<path d="M2450 1897 l0 -162 -110 -110 -110 -110 -73 0 c-54 0 -82 -5 -112
-21 -56 -29 -97 -90 -103 -153 -20 -208 247 -308 366 -137 23 34 27 50 28 119
l1 79 137 137 136 136 0 163 c0 99 -4 162 -10 162 -5 0 -38 14 -72 30 -34 17
-65 30 -70 30 -4 0 -8 -73 -8 -163z"/>
<path d="M2790 1539 l0 -404 -106 -106 -107 -107 -52 5 c-125 13 -225 -74
-225 -197 0 -113 89 -200 204 -200 56 0 93 14 129 48 50 47 69 97 65 168 l-3
64 128 128 127 127 0 427 0 426 -47 6 c-27 4 -63 10 -80 13 l-33 5 0 -403z"/>
<path d="M3193 1927 l-63 -11 0 -501 0 -501 64 -63 65 -64 -6 -63 c-8 -83 20
-144 85 -185 89 -56 187 -47 258 25 138 138 20 369 -175 342 -43 -6 -47 -4
-88 36 l-43 42 0 478 c0 449 -1 478 -17 476 -10 0 -46 -6 -80 -11z"/>
</g>
</svg>
