<?xml version="1.0" encoding="UTF-8" standalone="no"?>
<!-- Generator: Adobe Illustrator 22.0.1, SVG Export Plug-In . SVG Version: 6.00 Build 0)  -->

<svg
   xmlns:dc="http://purl.org/dc/elements/1.1/"
   xmlns:cc="http://creativecommons.org/ns#"
   xmlns:rdf="http://www.w3.org/1999/02/22-rdf-syntax-ns#"
   xmlns:svg="http://www.w3.org/2000/svg"
   xmlns="http://www.w3.org/2000/svg"
   xmlns:sodipodi="http://sodipodi.sourceforge.net/DTD/sodipodi-0.dtd"
   xmlns:inkscape="http://www.inkscape.org/namespaces/inkscape"
   version="1.1"
   id="Ebene_1"
   x="0px"
   y="0px"
   viewBox="0 0 148.39999 69.300003"
   xml:space="preserve"
   inkscape:version="0.91 r13725"
   sodipodi:docname="logo_sab.svg"
   width="148.39999"
   height="69.300003"><metadata
     id="metadata93"><rdf:RDF><cc:Work
         rdf:about=""><dc:format>image/svg+xml</dc:format><dc:type
           rdf:resource="http://purl.org/dc/dcmitype/StillImage" /><dc:title></dc:title></cc:Work></rdf:RDF></metadata><defs
     id="defs91" /><sodipodi:namedview
     pagecolor="#ffffff"
     bordercolor="#666666"
     borderopacity="1"
     objecttolerance="10"
     gridtolerance="10"
     guidetolerance="10"
     inkscape:pageopacity="0"
     inkscape:pageshadow="2"
     inkscape:window-width="1396"
     inkscape:window-height="1071"
     id="namedview89"
     showgrid="false"
     fit-margin-top="0"
     fit-margin-left="0"
     fit-margin-right="0"
     fit-margin-bottom="0"
     inkscape:zoom="1.84375"
     inkscape:cx="74.1"
     inkscape:cy="34.9"
     inkscape:window-x="2470"
     inkscape:window-y="118"
     inkscape:window-maximized="0"
     inkscape:current-layer="Ebene_1" /><style
     type="text/css"
     id="style3">
	.st0{fill:#15504B;}
	.st1{fill:#AECC52;}
</style><path
     class="st0"
     d="m 24.5,48.7 c -1.1,-0.8 -2.4,-1.5 -3.7,-2 -1.3,-0.5 -2.5,-0.9 -3.7,-1.3 -1,-0.3 -2,-0.6 -2.8,-0.9 -0.8,-0.3 -1.5,-0.6 -2,-1 -0.5,-0.3 -0.9,-0.8 -1.2,-1.2 -0.3,-0.5 -0.4,-1 -0.4,-1.7 0,-0.7 0.2,-1.4 0.5,-1.9 0.3,-0.5 0.8,-1 1.3,-1.3 0.5,-0.3 1.2,-0.6 1.8,-0.8 1.9,-0.5 3.7,-0.3 5.6,0.6 1.1,0.5 2,1.2 2.7,2 l 0.6,0.8 5.5,-6.1 -0.6,-0.6 c -1.5,-1.4 -3.3,-2.5 -5.4,-3.2 -3.8,-1.3 -7.6,-1.3 -11.2,-0.4 -1.7,0.5 -3.3,1.2 -4.6,2.1 -1.4,1 -2.5,2.2 -3.3,3.6 -1,1.5 -1.5,3.3 -1.5,5.3 0,1.9 0.3,3.5 0.9,4.7 0.6,1.3 1.4,2.3 2.4,3.2 1,0.9 2,1.6 3.2,2.1 1.1,0.5 2.3,0.9 3.4,1.3 l 3.3,1.1 c 1,0.3 1.8,0.7 2.5,1.1 0.7,0.4 1.2,0.9 1.6,1.4 0.4,0.5 0.5,1.1 0.5,1.9 0,0.9 -0.2,1.6 -0.5,2.1 -0.3,0.6 -0.8,1.1 -1.3,1.4 -0.6,0.4 -1.2,0.7 -1.9,0.8 C 14.1,62.3 12.1,62.1 9.9,61 8.5,60.3 7.4,59.4 6.6,58.3 L 6,57.5 0,63.1 0.5,63.7 c 1.6,1.8 3.6,3.3 6,4.2 2.4,0.9 4.9,1.4 7.4,1.4 1.9,0 3.7,-0.3 5.4,-0.8 1.7,-0.5 3.3,-1.3 4.6,-2.3 1.3,-1.1 2.4,-2.4 3.2,-4 0.8,-1.6 1.2,-3.5 1.2,-5.6 0,-2 -0.4,-3.6 -1.1,-5 -0.6,-0.9 -1.6,-2 -2.7,-2.9 z"
     id="path5"
     inkscape:connector-curvature="0"
     style="fill:#15504b" /><path
     class="st0"
     d="m 54.8,30.5 -0.2,-0.5 -6.8,0 -16.9,38.7 9.2,0 3.3,-8.5 14.9,0 3.5,8.5 9.4,0 -16.4,-38.2 z m 0.7,22.4 -9.1,0 4.6,-11.8 4.5,11.8 z"
     id="path7"
     inkscape:connector-curvature="0"
     style="fill:#15504b" /><g
     id="g9"
     transform="translate(-0.9,-29.6)"><path
       class="st0"
       d="m 101.9,80 c -1.1,-1.1 -2.3,-1.9 -3.8,-2.4 1.1,-0.6 2,-1.3 2.8,-2.2 1.3,-1.5 2,-3.4 2,-5.7 0,-1.8 -0.4,-3.4 -1.1,-4.7 C 101.1,63.7 100.1,62.6 99,61.8 97.9,61 96.5,60.4 95.1,60 93.7,59.7 92.2,59.5 90.8,59.5 l -14.6,0 0,38.7 13.4,0 c 1.8,0 3.6,-0.2 5.3,-0.6 1.8,-0.4 3.4,-1 4.8,-1.9 1.4,-0.9 2.6,-2.1 3.4,-3.6 0.9,-1.5 1.3,-3.4 1.3,-5.5 0,-2.7 -0.8,-4.9 -2.5,-6.6 z m -17.4,-5.4 0,-7.9 3.6,0 c 2.3,0 4.1,0.3 5.1,0.9 0.9,0.5 1.4,1.5 1.4,2.8 0,1.3 -0.5,2.3 -1.4,3 -1,0.8 -2.5,1.1 -4.5,1.1 l -4.2,0 z m 11.6,11.7 c 0,1 -0.2,1.8 -0.6,2.4 -0.5,0.6 -1,1.1 -1.7,1.4 -0.7,0.3 -1.6,0.6 -2.4,0.7 -1,0.2 -1.9,0.2 -2.7,0.2 l -4.2,0 0,-9 4.5,0 c 2.5,0 4.4,0.3 5.6,1 1,0.6 1.5,1.7 1.5,3.3 z"
       id="path11"
       inkscape:connector-curvature="0"
       style="fill:#15504b" /><g
       id="g13"><path
         class="st1"
         d="m 111.2,95.4 c 0,-1 0.8,-1.8 1.8,-1.8 1,0 1.8,0.8 1.8,1.8 0,1 -0.8,1.8 -1.8,1.8 -1,0 -1.8,-0.8 -1.8,-1.8"
         id="path15"
         inkscape:connector-curvature="0"
         style="fill:#aecc52" /></g><g
       id="g17"><path
         class="st1"
         d="m 126.4,95.4 c 0,-1 0.8,-1.8 1.8,-1.8 1,0 1.8,0.8 1.8,1.8 0,1 -0.8,1.8 -1.8,1.8 -1,0 -1.8,-0.8 -1.8,-1.8"
         id="path19"
         inkscape:connector-curvature="0"
         style="fill:#aecc52" /></g><g
       id="g21"><path
         class="st1"
         d="m 141.6,95.4 c 0,-1.3 1.1,-2.4 2.4,-2.4 1.3,0 2.4,1.1 2.4,2.4 0,1.3 -1.1,2.4 -2.4,2.4 -1.3,0 -2.4,-1.1 -2.4,-2.4"
         id="path23"
         inkscape:connector-curvature="0"
         style="fill:#aecc52" /></g><g
       id="g25"><path
         class="st1"
         d="m 111.2,80.5 c 0,-1 0.8,-1.8 1.8,-1.8 1,0 1.8,0.8 1.8,1.8 0,1 -0.8,1.8 -1.8,1.8 -1,0 -1.8,-0.8 -1.8,-1.8"
         id="path27"
         inkscape:connector-curvature="0"
         style="fill:#aecc52" /></g><g
       id="g29"><path
         class="st1"
         d="m 125.8,80.5 c 0,-1.3 1.1,-2.4 2.4,-2.4 1.3,0 2.4,1.1 2.4,2.4 0,1.3 -1.1,2.4 -2.4,2.4 -1.3,0 -2.4,-1.1 -2.4,-2.4"
         id="path31"
         inkscape:connector-curvature="0"
         style="fill:#aecc52" /></g><g
       id="g33"><path
         class="st1"
         d="m 140.5,80.5 c 0,-1.9 1.6,-3.5 3.5,-3.5 1.9,0 3.5,1.6 3.5,3.5 0,1.9 -1.6,3.5 -3.5,3.5 -1.9,0 -3.5,-1.5 -3.5,-3.5"
         id="path35"
         inkscape:connector-curvature="0"
         style="fill:#aecc52" /></g><g
       id="g37"><path
         class="st1"
         d="m 110.6,65.3 c 0,-1.3 1.1,-2.4 2.4,-2.4 1.3,0 2.4,1.1 2.4,2.4 0,1.3 -1.1,2.4 -2.4,2.4 -1.3,0 -2.4,-1.1 -2.4,-2.4"
         id="path39"
         inkscape:connector-curvature="0"
         style="fill:#aecc52" /></g><g
       id="g41"><path
         class="st1"
         d="m 124.3,65.3 c 0,-2.2 1.8,-4 4,-4 2.2,0 4,1.8 4,4 0,2.2 -1.8,4 -4,4 -2.3,0 -4,-1.8 -4,-4"
         id="path43"
         inkscape:connector-curvature="0"
         style="fill:#aecc52" /></g><g
       id="g45"><path
         class="st1"
         d="m 125.2,50.1 c 0,-2.1 1.7,-3.8 3.8,-3.8 2.1,0 3.8,1.7 3.8,3.8 0,2.1 -1.7,3.8 -3.8,3.8 -2.1,0 -3.8,-1.7 -3.8,-3.8"
         id="path47"
         inkscape:connector-curvature="0"
         style="fill:#aecc52" /></g><g
       id="g49"><path
         class="st1"
         d="m 108.6,50.1 c 0,-2.4 2,-4.4 4.4,-4.4 2.4,0 4.4,2 4.4,4.4 0,2.4 -2,4.4 -4.4,4.4 -2.4,0 -4.4,-2 -4.4,-4.4"
         id="path51"
         inkscape:connector-curvature="0"
         style="fill:#aecc52" /></g><g
       id="g53"><path
         class="st1"
         d="m 110,34.9 c 0,-1.7 1.3,-3 3,-3 1.7,0 3,1.3 3,3 0,1.7 -1.3,3 -3,3 -1.6,0 -3,-1.3 -3,-3"
         id="path55"
         inkscape:connector-curvature="0"
         style="fill:#aecc52" /></g><g
       id="g57"><path
         class="st1"
         d="m 141.2,65.3 c 0,-1.6 1.3,-2.9 2.9,-2.9 1.6,0 2.9,1.3 2.9,2.9 0,1.6 -1.3,2.9 -2.9,2.9 -1.6,0 -2.9,-1.3 -2.9,-2.9"
         id="path59"
         inkscape:connector-curvature="0"
         style="fill:#aecc52" /></g><g
       id="g61"><path
         class="st1"
         d="m 123.8,34.9 c 0,-2.4 2,-4.4 4.4,-4.4 2.4,0 4.4,2 4.4,4.4 0,2.4 -2,4.4 -4.4,4.4 -2.4,0 -4.4,-2 -4.4,-4.4"
         id="path63"
         inkscape:connector-curvature="0"
         style="fill:#aecc52" /></g><g
       id="g65"><path
         class="st1"
         d="m 80.8,50.1 c 0,-1 0.8,-1.8 1.8,-1.8 1,0 1.8,0.8 1.8,1.8 0,1 -0.8,1.8 -1.8,1.8 -1,0 -1.8,-0.8 -1.8,-1.8"
         id="path67"
         inkscape:connector-curvature="0"
         style="fill:#aecc52" /></g><g
       id="g69"><path
         class="st1"
         d="m 95.4,50.1 c 0,-1.3 1.1,-2.4 2.4,-2.4 1.3,0 2.4,1.1 2.4,2.4 0,1.3 -1.1,2.4 -2.4,2.4 -1.3,0 -2.4,-1.1 -2.4,-2.4"
         id="path71"
         inkscape:connector-curvature="0"
         style="fill:#aecc52" /></g><g
       id="g73"><path
         class="st1"
         d="m 80.2,34.9 c 0,-1.3 1.1,-2.4 2.4,-2.4 1.3,0 2.4,1.1 2.4,2.4 0,1.3 -1.1,2.4 -2.4,2.4 -1.3,0 -2.4,-1.1 -2.4,-2.4"
         id="path75"
         inkscape:connector-curvature="0"
         style="fill:#aecc52" /></g><g
       id="g77"><path
         class="st1"
         d="m 94.3,34.9 c 0,-1.9 1.6,-3.5 3.5,-3.5 1.9,0 3.5,1.6 3.5,3.5 0,1.9 -1.6,3.5 -3.5,3.5 -1.9,0 -3.5,-1.6 -3.5,-3.5"
         id="path79"
         inkscape:connector-curvature="0"
         style="fill:#aecc52" /></g><g
       id="g81"><path
         class="st1"
         d="m 138.7,34.9 c 0,-2.9 2.4,-5.3 5.3,-5.3 2.9,0 5.3,2.4 5.3,5.3 0,2.9 -2.4,5.3 -5.3,5.3 -2.9,0 -5.3,-2.4 -5.3,-5.3"
         id="path83"
         inkscape:connector-curvature="0"
         style="fill:#aecc52" /></g><g
       id="g85"><path
         class="st1"
         d="m 139.6,50.1 c 0,-2.4 2,-4.4 4.4,-4.4 2.4,0 4.4,2 4.4,4.4 0,2.4 -2,4.4 -4.4,4.4 -2.4,0 -4.4,-2 -4.4,-4.4"
         id="path87"
         inkscape:connector-curvature="0"
         style="fill:#aecc52" /></g></g></svg>