<?xml version="1.0" encoding="utf-8"?>
<!-- Generator: Adobe Illustrator 16.0.0, SVG Export Plug-In . SVG Version: 6.00 Build 0)  -->
<!DOCTYPE svg PUBLIC "-//W3C//DTD SVG 1.1//EN" "http://www.w3.org/Graphics/SVG/1.1/DTD/svg11.dtd">
<svg version="1.1" id="Ebene_1" xmlns="http://www.w3.org/2000/svg" xmlns:xlink="http://www.w3.org/1999/xlink" x="0px" y="0px"
	 width="300px" height="90.5px" viewBox="0 0 300 90.5" enable-background="new 0 0 300 90.5" xml:space="preserve">
<g>
	<path fill="#4484CE" d="M84.036,53.346c-0.052-0.762,0.349-1.149,1.059-1.149h2.622c0.659,0,1.034,0.374,1.111,1.084
		c0.491,3.683,3.591,5.62,7.996,5.62c4.172,0,7.117-2.105,7.117-5.387c0-3.475-3.513-4.986-7.518-6.458
		c-5.386-1.99-11.535-3.915-11.535-11.161c0-6.304,5.425-9.805,11.187-9.805c5.813,0,11.019,3.294,11.562,9.624
		c0.051,0.763-0.349,1.15-1.06,1.15h-2.622c-0.659,0-1.034-0.375-1.111-1.046c-0.452-3.346-3.152-5.077-6.769-5.077
		c-3.63,0-6.407,1.912-6.407,5.154c0,3.643,3.242,5.103,7.247,6.614c5.399,2.041,11.807,4.017,11.807,11.006
		c0,6.343-5.593,10.037-11.897,10.037C90.249,63.551,84.578,60.063,84.036,53.346z"/>
	<path d="M135.343,59.456v2.351c0,0.711-0.388,1.099-1.098,1.099h-18.021h-0.71c-0.71,0-1.098-0.388-1.098-1.099V27.833
		c0-0.71,0.387-1.098,1.098-1.098h3.682h14.791c0.71,0,1.098,0.388,1.098,1.098v2.351c0,0.71-0.388,1.098-1.098,1.098h-14.791
		v11.123h13.499c0.711,0,1.099,0.387,1.099,1.098v2.299c0,0.71-0.388,1.098-1.099,1.098h-13.499v11.458h15.049
		C134.956,58.357,135.343,58.745,135.343,59.456z"/>
	<path d="M162.559,26.735h2.584c0.711,0,1.098,0.388,1.098,1.098v33.973c0,0.711-0.387,1.099-1.098,1.099h-1.899
		c-0.594,0-1.046-0.22-1.33-0.711L145.96,36.165v25.642c0,0.711-0.388,1.099-1.098,1.099h-2.583c-0.711,0-1.099-0.388-1.099-1.099
		V27.833c0-0.71,0.388-1.098,1.099-1.098h1.899c0.594,0,1.046,0.22,1.33,0.71l15.953,26.029V27.833
		C161.461,27.123,161.849,26.735,162.559,26.735z"/>
	<path d="M194.916,59.456v2.351c0,0.711-0.388,1.099-1.098,1.099h-18.021h-0.71c-0.711,0-1.099-0.388-1.099-1.099V27.833
		c0-0.71,0.388-1.098,1.099-1.098h3.681h14.791c0.711,0,1.098,0.388,1.098,1.098v2.351c0,0.71-0.387,1.098-1.098,1.098h-14.791
		v11.123h13.499c0.711,0,1.098,0.387,1.098,1.098v2.299c0,0.71-0.387,1.098-1.098,1.098h-13.499v11.458h15.05
		C194.528,58.357,194.916,58.745,194.916,59.456z"/>
	<path d="M228.294,62.905h-3.204c-0.556,0-0.994-0.169-1.369-0.621l-11.339-13.201h-6.849v12.724c0,0.711-0.388,1.099-1.098,1.099
		h-2.584c-0.711,0-1.098-0.388-1.098-1.099V27.833c0-0.71,0.387-1.098,1.098-1.098h3.682h8.396c6.215,0,11.239,5.025,11.239,11.238
		c0,4.78-3.142,8.946-7.528,10.481l11.273,13.08C229.508,62.246,229.224,62.905,228.294,62.905z M205.533,44.717h8.396
		c3.554,0,6.46-3.023,6.46-6.743c0-3.759-2.906-6.743-6.46-6.743h-8.396V44.717z"/>
	<path d="M264.539,44.277c0.71,0,1.099,0.388,1.099,1.098v3.268v13.163c0,0.711-0.389,1.099-1.099,1.099h-2.454
		c-0.711,0-1.099-0.388-1.099-1.099v-4.162c-2.712,3.995-7.475,5.906-12.749,5.906c-10.657,0-18.473-8.319-18.473-18.731
		c0-10.411,7.867-18.73,18.731-18.73c7.672,0,14.299,4.56,16.728,11.019c0.271,0.762-0.116,1.253-0.892,1.253h-2.881
		c-0.606,0-1.02-0.271-1.305-0.814c-1.963-4.03-6.472-6.808-11.65-6.808c-8.268,0-13.951,6.149-13.951,14.08
		c0,8.061,5.761,14.209,13.951,14.209c6.537,0,12.306-3.475,12.451-10.386H250.33c-0.71,0-1.098-0.388-1.098-1.098v-2.17
		c0-0.71,0.388-1.098,1.098-1.098H264.539L264.539,44.277z"/>
	<path d="M295.824,28.053L284.34,46.347v15.46c0,0.711-0.387,1.099-1.098,1.099h-2.584c-0.71,0-1.098-0.388-1.098-1.099V46.284
		l-11.445-18.231c-0.478-0.736-0.143-1.317,0.724-1.317h2.972c0.568,0,0.994,0.232,1.304,0.736l8.855,14.292l8.855-14.292
		c0.311-0.504,0.736-0.736,1.305-0.736h2.971C295.966,26.735,296.302,27.316,295.824,28.053z"/>
</g>
<g>
	
		<line fill="none" stroke="#F19F4D" stroke-width="3.5771" stroke-linecap="round" stroke-miterlimit="10" x1="29.553" y1="85.682" x2="36.708" y2="85.682"/>
	<path fill="none" stroke="#F19F4D" stroke-width="2.3847" stroke-miterlimit="10" d="M41.202,85.686
		c0,1.021-0.827,1.846-1.846,1.846s-1.845-0.825-1.845-1.846c0-1.017,0.825-1.844,1.845-1.844
		C40.375,83.842,41.202,84.669,41.202,85.686z"/>
	<path fill="none" stroke="#F19F4D" stroke-width="2.3847" stroke-miterlimit="10" d="M28.881,85.686
		c0,1.021-0.827,1.846-1.845,1.846c-1.02,0-1.845-0.825-1.845-1.846c0-1.017,0.825-1.844,1.845-1.844
		C28.054,83.842,28.881,84.669,28.881,85.686z"/>
</g>
<g>
	
		<line fill="none" stroke="#4484CE" stroke-width="3.5771" stroke-miterlimit="10" x1="26.374" y1="78.925" x2="40.285" y2="78.925"/>
	<path fill="none" stroke="#4484CE" stroke-width="2.3847" stroke-miterlimit="10" d="M43.189,78.929
		c0,1.021-0.827,1.847-1.846,1.847s-1.845-0.826-1.845-1.847c0-1.017,0.825-1.844,1.845-1.844
		C42.363,77.085,43.189,77.912,43.189,78.929z"/>
	<path fill="none" stroke="#4484CE" stroke-width="2.3847" stroke-miterlimit="10" d="M26.894,78.929
		c0,1.021-0.827,1.847-1.845,1.847c-1.02,0-1.845-0.826-1.845-1.847c0-1.017,0.825-1.844,1.845-1.844
		C26.067,77.085,26.894,77.912,26.894,78.929z"/>
</g>
<path fill="none" stroke="#000000" stroke-width="2.3847" stroke-miterlimit="10" d="M60.35,31.321c0,1.02-0.867,1.847-1.935,1.847
	c-1.068,0-1.935-0.826-1.935-1.847c0-1.017,0.867-1.844,1.935-1.844C59.483,29.478,60.35,30.305,60.35,31.321z"/>
<path fill="none" stroke="#000000" stroke-width="3.1796" stroke-linecap="round" stroke-linejoin="round" stroke-miterlimit="10" d="
	M7.958,29.052c0,0,1.192-23.835,25.649-23.582c25.65,0.265,24.735,23.39,24.735,23.39"/>
<path fill="none" stroke="#000000" stroke-width="2.3847" stroke-miterlimit="10" d="M9.912,31.321c0,1.02-0.867,1.847-1.935,1.847
	s-1.934-0.826-1.934-1.847c0-1.017,0.866-1.844,1.934-1.844S9.912,30.305,9.912,31.321z"/>
<g>
	<g>
		<path fill="none" stroke="#000000" stroke-width="2.3847" stroke-miterlimit="10" d="M8.152,37.427
			c1.065,0,1.929,0.827,1.929,1.844c0,1.02-0.864,1.847-1.929,1.847s-1.93-0.827-1.93-1.847C6.222,38.254,7.087,37.427,8.152,37.427
			z"/>
		<path fill="none" stroke="#000000" stroke-width="3.1796" stroke-linecap="round" stroke-miterlimit="10" d="M24.068,68.73
			c0,0,0.07,0.207-0.397-2.895c-0.469-3.103-1.801-6.055-5.378-9.433C10.145,50.441,8.221,41.638,8.221,41.638"/>
		<path fill="none" stroke="#000000" stroke-width="2.3847" stroke-miterlimit="10" d="M24.061,69.397
			c1.065,0,1.929,0.828,1.929,1.844c0,1.021-0.863,1.847-1.929,1.847c-1.066,0-1.931-0.826-1.931-1.847
			C22.13,70.226,22.995,69.397,24.061,69.397z"/>
	</g>
	<g>
		<path fill="none" stroke="#000000" stroke-width="2.3847" stroke-miterlimit="10" d="M60.17,39.271c0,1.02-0.865,1.847-1.93,1.847
			s-1.929-0.827-1.929-1.847c0-1.017,0.864-1.844,1.929-1.844C59.306,37.427,60.17,38.254,60.17,39.271z"/>
		<path fill="none" stroke="#000000" stroke-width="3.1796" stroke-linecap="round" stroke-miterlimit="10" d="M58.172,41.638
			c0,0-1.923,8.803-10.071,14.765c-3.577,3.378-4.91,6.33-5.378,9.433c-0.468,3.102-0.397,2.895-0.397,2.895"/>
		<path fill="none" stroke="#000000" stroke-width="2.3847" stroke-miterlimit="10" d="M44.263,71.241
			c0,1.021-0.865,1.847-1.931,1.847c-1.065,0-1.929-0.826-1.929-1.847c0-1.016,0.863-1.844,1.929-1.844S44.263,70.226,44.263,71.241
			z"/>
	</g>
</g>
<g>
	<g>
		
			<polyline fill="none" stroke="#000000" stroke-width="2.3847" stroke-linecap="round" stroke-linejoin="round" stroke-miterlimit="10" points="
			37.502,66.405 37.502,56.538 45.278,47.6 45.133,28.155 		"/>
		<path fill="none" stroke="#4484CE" stroke-width="2.3847" stroke-miterlimit="10" d="M46.965,25.757
			c0,1.02-0.827,1.847-1.846,1.847c-1.02,0-1.845-0.827-1.845-1.847c0-1.017,0.825-1.844,1.845-1.844
			C46.138,23.914,46.965,24.741,46.965,25.757z"/>
	</g>
	<g>
		
			<polyline fill="none" stroke="#000000" stroke-width="2.3847" stroke-linecap="round" stroke-linejoin="round" stroke-miterlimit="10" points="
			33.13,63.623 33.13,48.896 29.951,44.786 29.951,36.199 		"/>
		<path fill="none" stroke="#F19F4D" stroke-width="2.3847" stroke-miterlimit="10" d="M31.862,34.104
			c0,1.02-0.827,1.847-1.845,1.847c-1.02,0-1.845-0.826-1.845-1.847c0-1.017,0.825-1.844,1.845-1.844
			C31.035,32.26,31.862,33.087,31.862,34.104z"/>
	</g>
	<g>
		
			<polyline fill="none" stroke="#000000" stroke-width="2.3847" stroke-linecap="round" stroke-linejoin="round" stroke-miterlimit="10" points="
			28.758,65.213 28.758,49.791 21.583,45.465 21.451,30.837 		"/>
		<path fill="none" stroke="#F9CF00" stroke-width="2.3847" stroke-miterlimit="10" d="M23.515,28.54
			c0,1.02-0.826,1.846-1.845,1.846s-1.845-0.826-1.845-1.846c0-1.017,0.825-1.844,1.845-1.844
			C22.689,26.695,23.515,27.522,23.515,28.54z"/>
	</g>
</g>
</svg>
